G04*
G04 #@! TF.GenerationSoftware,Altium Limited,Altium Designer,24.5.2 (23)*
G04*
G04 Layer_Color=8388736*
%FSLAX44Y44*%
%MOMM*%
G71*
G04*
G04 #@! TF.SameCoordinates,DA4F2BB6-B92A-4C93-AA23-9DFF3C9F4085*
G04*
G04*
G04 #@! TF.FilePolarity,Negative*
G04*
G01*
G75*
%ADD21C,0.5080*%
%ADD22R,1.2016X1.4016*%
%ADD23R,0.9500X1.6000*%
%ADD24R,1.6000X0.9500*%
%ADD25R,1.9812X0.7112*%
%ADD26R,1.8796X1.8796*%
%ADD27C,1.8796*%
%ADD28R,1.8796X1.8796*%
%ADD29C,1.7516*%
%ADD30R,1.7516X1.7516*%
%ADD31C,2.1016*%
D21*
X501540Y833000D02*
G03*
X501540Y833000I-2540J0D01*
G01*
X506620D02*
G03*
X506620Y833000I-7620J0D01*
G01*
D22*
X490280Y797500D02*
D03*
X472500D02*
D03*
D23*
X508750Y775000D02*
D03*
X491250Y775000D02*
D03*
X368750Y732500D02*
D03*
X386250D02*
D03*
X423750D02*
D03*
X406250D02*
D03*
D24*
X442500Y821250D02*
D03*
Y838750D02*
D03*
Y756250D02*
D03*
Y773750D02*
D03*
Y788750D02*
D03*
Y806250D02*
D03*
D25*
X420400Y803850D02*
D03*
Y778450D02*
D03*
Y791150D02*
D03*
Y765750D02*
D03*
Y816550D02*
D03*
Y753050D02*
D03*
Y841950D02*
D03*
X369600Y778450D02*
D03*
X420400Y829250D02*
D03*
X369600Y791150D02*
D03*
Y765750D02*
D03*
Y753050D02*
D03*
Y829250D02*
D03*
Y803850D02*
D03*
Y841950D02*
D03*
Y816550D02*
D03*
D26*
X472500Y721300D02*
D03*
D27*
X523300D02*
D03*
X497900D02*
D03*
X297000Y797050D02*
D03*
Y771650D02*
D03*
Y746250D02*
D03*
Y822450D02*
D03*
Y847850D02*
D03*
D28*
Y720850D02*
D03*
D29*
X600000Y848700D02*
D03*
Y823300D02*
D03*
Y797900D02*
D03*
Y772500D02*
D03*
Y747100D02*
D03*
D30*
Y721700D02*
D03*
D31*
X516636Y806196D02*
D03*
X345000Y745000D02*
D03*
M02*
